<?xml version="1.0" encoding="UTF-8" standalone="no"?>
<!-- Created with Inkscape (http://www.inkscape.org/) -->

<svg
   width="70px"
   height="70px"
   viewBox="0 0 70 70"
   version="1.1"
   id="SVGRoot"
   sodipodi:docname="rock-1-1-1.svg"
   inkscape:version="1.1 (c68e22c387, 2021-05-23)"
   xmlns:inkscape="http://www.inkscape.org/namespaces/inkscape"
   xmlns:sodipodi="http://sodipodi.sourceforge.net/DTD/sodipodi-0.dtd"
   xmlns="http://www.w3.org/2000/svg"
   xmlns:svg="http://www.w3.org/2000/svg">
  <sodipodi:namedview
     id="namedview993"
     pagecolor="#505050"
     bordercolor="#eeeeee"
     borderopacity="1"
     inkscape:pageshadow="0"
     inkscape:pageopacity="0"
     inkscape:pagecheckerboard="0"
     inkscape:document-units="px"
     showgrid="false"
     inkscape:zoom="8.7988366"
     inkscape:cx="36.652573"
     inkscape:cy="34.777325"
     inkscape:window-width="1904"
     inkscape:window-height="1028"
     inkscape:window-x="0"
     inkscape:window-y="0"
     inkscape:window-maximized="0"
     inkscape:current-layer="layer1" />
  <defs
     id="defs988" />
  <g
     inkscape:label="Layer 1"
     inkscape:groupmode="layer"
     id="layer1">
    <path
       style="fill:#666666;stroke:#000000;stroke-width:0.901203px;stroke-linecap:butt;stroke-linejoin:miter;stroke-opacity:1"
       d="M 28.229163,0.73652217 C 6.7835534,5.247607 1.9953827,17.925312 1.9953827,18.625307 c 0,0.699996 -1.07902437,16.644349 -0.9441463,17.266567 0.134878,0.622218 11.8692686,15.244357 11.8692686,15.244357 l 18.141097,-3.733313 c 0,0 4.258017,22.947551 13.636213,4.213936 9.378194,-18.733614 6.730372,-6.158369 6.730372,-6.158369 0,0 6.757455,-6.247215 6.474146,-7.466624 -0.283308,-1.219408 1.111858,0.585648 0,-4.199975 -1.111857,-4.785623 -1.483659,-9.877721 -1.348779,-11.122157 0.134877,-1.244438 0.134877,-5.911078 1.079023,-8.399952 0.944147,-2.488874 1.685975,-7.5444007 1.079024,-8.7888379 C 58.10465,4.2365019 57.227942,2.4476234 55.609406,1.3587408 53.99087,0.26985821 51.630504,2.0587367 47.719042,2.369846 43.807577,2.6809553 35.917212,4.2365019 33.96148,3.536506 32.005748,2.83651 28.229163,0.73652217 28.229163,0.73652217 Z"
       id="path1901" />
    <path
       style="fill:#666666;stroke:#000000;stroke-width:0.901203px;stroke-linecap:butt;stroke-linejoin:miter;stroke-opacity:1"
       d="m 41.081399,64.02438 c 21.445609,-4.511085 26.23378,-17.18879 26.23378,-17.888785 0,-0.699996 1.079024,-16.644349 0.944146,-17.266567 C 68.124447,28.24681 56.390057,13.624671 56.390057,13.624671 L 38.24896,17.357984 c 0,0 -4.258017,-22.9475511 -13.636213,-4.213936 -9.378194,18.733614 -6.730372,6.158369 -6.730372,6.158369 0,0 -6.757455,6.247215 -6.474146,7.466624 0.283308,1.219408 -1.111858,-0.585648 0,4.199975 1.111857,4.785623 1.483659,9.877721 1.348779,11.122157 -0.134877,1.244438 -0.134877,5.911078 -1.079023,8.399952 -0.944147,2.488874 -1.6859752,7.544401 -1.079024,8.788838 0.606951,1.244437 1.483659,3.033316 3.102195,4.122198 1.618536,1.088883 3.978902,-0.699996 7.890364,-1.011105 3.911465,-0.311109 11.80183,-1.866656 13.757562,-1.16666 1.955732,0.699996 5.732317,2.799984 5.732317,2.799984 z"
       id="path1901-3" />
  </g>
</svg>
