<?xml version="1.0" encoding="UTF-8" standalone="no"?>
<!-- Created with Inkscape (http://www.inkscape.org/) -->

<svg
   width="70px"
   height="70px"
   viewBox="0 0 70 70"
   version="1.1"
   id="SVGRoot"
   sodipodi:docname="rock-1-1-2.svg"
   inkscape:version="1.1 (c68e22c387, 2021-05-23)"
   xmlns:inkscape="http://www.inkscape.org/namespaces/inkscape"
   xmlns:sodipodi="http://sodipodi.sourceforge.net/DTD/sodipodi-0.dtd"
   xmlns="http://www.w3.org/2000/svg"
   xmlns:svg="http://www.w3.org/2000/svg">
  <sodipodi:namedview
     id="namedview993"
     pagecolor="#505050"
     bordercolor="#eeeeee"
     borderopacity="1"
     inkscape:pageshadow="0"
     inkscape:pageopacity="0"
     inkscape:pagecheckerboard="0"
     inkscape:document-units="px"
     showgrid="false"
     inkscape:zoom="4.3994183"
     inkscape:cx="39.209729"
     inkscape:cy="57.734906"
     inkscape:window-width="1904"
     inkscape:window-height="1028"
     inkscape:window-x="0"
     inkscape:window-y="0"
     inkscape:window-maximized="0"
     inkscape:current-layer="layer1" />
  <defs
     id="defs988" />
  <g
     inkscape:label="Layer 1"
     inkscape:groupmode="layer"
     id="layer1">
    <path
       style="fill:#666666;stroke:#000000;stroke-width:0.471294px;stroke-linecap:butt;stroke-linejoin:miter;stroke-opacity:1"
       d="M 23.722046,7.7834149 C 12.473491,10.135543 9.9620206,16.745836 9.9620206,17.110821 c 0,0.364986 -0.565965,8.678545 -0.4952194,9.002976 0.070746,0.324431 6.2256158,7.948573 6.2256158,7.948573 l 9.515287,-1.94659 c 0,0 2.233397,11.965102 7.152406,2.197192 4.919009,-9.76791 3.530185,-3.21104 3.530185,-3.21104 0,0 3.544391,-3.257366 3.395791,-3.893179 -0.1486,-0.635812 0.583186,0.305363 0,-2.189912 -0.583187,-2.495276 -0.778203,-5.150352 -0.707456,-5.799214 0.07074,-0.648863 0.07074,-3.0821 0.565964,-4.379826 0.49522,-1.297726 0.88432,-3.933733 0.565965,-4.582596 C 39.392204,9.6083423 38.932357,8.6756017 38.083409,8.1078464 37.234462,7.5400913 35.996414,8.4728319 33.944791,8.6350477 31.893167,8.7972635 27.754548,9.6083423 26.728736,9.2433568 25.702924,8.8783713 23.722046,7.7834149 23.722046,7.7834149 Z"
       id="path1901" />
    <path
       style="fill:#666666;stroke:#000000;stroke-width:0.471294px;stroke-linecap:butt;stroke-linejoin:miter;stroke-opacity:1"
       d="m 25.207704,32.11578 c 2.352128,11.248555 8.962421,13.760025 9.327406,13.760025 0.364986,0 8.678545,0.565965 9.002976,0.49522 0.324431,-0.07075 7.948573,-6.225616 7.948573,-6.225616 l -1.94659,-9.515287 c 0,0 11.965102,-2.233397 2.197192,-7.152406 -9.76791,-4.919009 -3.21104,-3.530185 -3.21104,-3.530185 0,0 -3.257366,-3.544391 -3.893179,-3.395791 -0.635812,0.1486 0.305363,-0.583186 -2.189912,0 -2.495276,0.583187 -5.150352,0.778203 -5.799214,0.707456 -0.648863,-0.07074 -3.0821,-0.07074 -4.379826,-0.565964 -1.297726,-0.49522 -3.933733,-0.88432 -4.582596,-0.565965 -0.648863,0.318355 -1.581603,0.778202 -2.149359,1.62715 -0.567755,0.848947 0.364986,2.086995 0.527202,4.138618 0.162215,2.051624 0.973294,6.190243 0.608309,7.216055 -0.364986,1.025812 -1.459942,3.00669 -1.459942,3.00669 z"
       id="path1901-1" />
    <path
       style="fill:#666666;stroke:#000000;stroke-width:0.471294px;stroke-linecap:butt;stroke-linejoin:miter;stroke-opacity:1"
       d="m 25.207704,32.11578 c -11.248555,2.352128 -13.760025,8.962421 -13.760025,9.327406 0,0.364986 -0.565965,8.678545 -0.495219,9.002976 0.07075,0.324431 6.225615,7.948573 6.225615,7.948573 l 9.515287,-1.94659 c 0,0 2.233397,11.965102 7.152406,2.197192 4.919009,-9.76791 3.530185,-3.21104 3.530185,-3.21104 0,0 3.544391,-3.257366 3.395791,-3.893179 -0.1486,-0.635812 0.583186,0.305363 0,-2.189912 -0.583187,-2.495276 -0.778203,-5.150352 -0.707456,-5.799214 0.07074,-0.648863 0.07074,-3.0821 0.565964,-4.379826 0.49522,-1.297726 0.88432,-3.933733 0.565965,-4.582596 -0.318355,-0.648863 -0.778202,-1.581603 -1.62715,-2.149359 -0.848947,-0.567755 -2.086995,0.364986 -4.138618,0.527202 -2.051624,0.162216 -6.190243,0.973294 -7.216055,0.608309 -1.025812,-0.364986 -3.00669,-1.459942 -3.00669,-1.459942 z"
       id="path1901-8" />
  </g>
</svg>
