<?xml version="1.0" encoding="UTF-8" standalone="no"?>
<!-- Created with Inkscape (http://www.inkscape.org/) -->

<svg
   width="70px"
   height="70px"
   viewBox="0 0 70 70"
   version="1.1"
   id="SVGRoot"
   sodipodi:docname="rock-1-3-4.svg"
   inkscape:version="1.1 (c68e22c387, 2021-05-23)"
   xmlns:inkscape="http://www.inkscape.org/namespaces/inkscape"
   xmlns:sodipodi="http://sodipodi.sourceforge.net/DTD/sodipodi-0.dtd"
   xmlns="http://www.w3.org/2000/svg"
   xmlns:svg="http://www.w3.org/2000/svg">
  <sodipodi:namedview
     id="namedview993"
     pagecolor="#505050"
     bordercolor="#eeeeee"
     borderopacity="1"
     inkscape:pageshadow="0"
     inkscape:pageopacity="0"
     inkscape:pagecheckerboard="0"
     inkscape:document-units="px"
     showgrid="false"
     inkscape:zoom="8.7988366"
     inkscape:cx="39.039252"
     inkscape:cy="33.981765"
     inkscape:window-width="1904"
     inkscape:window-height="1028"
     inkscape:window-x="0"
     inkscape:window-y="0"
     inkscape:window-maximized="0"
     inkscape:current-layer="layer1" />
  <defs
     id="defs988" />
  <g
     inkscape:label="Layer 1"
     inkscape:groupmode="layer"
     id="layer1">
    <path
       style="fill:#666666;stroke:#000000;stroke-width:0.634712px;stroke-linecap:butt;stroke-linejoin:miter;stroke-opacity:1"
       d="m 7.042021,29.558201 c 3.167716,15.148927 12.070088,18.531234 12.56163,18.531234 0.491542,0 11.687778,0.762211 12.124704,0.666934 0.436926,-0.09528 10.704695,-8.384312 10.704695,-8.384312 L 39.811492,27.5574 c 0,0 16.113931,-3.007815 2.959055,-9.632461 -13.154876,-6.624647 -4.324451,-4.754257 -4.324451,-4.754257 0,0 -4.386838,-4.7733877 -5.243115,-4.5732607 -0.856276,0.200126 0.411246,-0.785403 -2.949252,0 -3.360499,0.7854016 -6.936206,1.0480386 -7.810057,0.9527626 -0.873853,-0.09528 -4.1508,-0.09528 -5.898505,-0.7622096 -1.747704,-0.666935 -5.29773,-1.190954 -6.171583,-0.76221 -0.8738524,0.428743 -2.1300155,1.048039 -2.8946363,2.1913547 -0.7646209,1.143314 0.4915421,2.810649 0.7100045,5.57366 0.2184634,2.763012 1.3107794,8.336674 0.8192374,9.71818 -0.491542,1.381506 -1.9661686,4.049242 -1.9661686,4.049242 z"
       id="path1901" />
    <path
       style="fill:#666666;stroke:#000000;stroke-width:0.634712px;stroke-linecap:butt;stroke-linejoin:miter;stroke-opacity:1"
       d="M 43.093034,22.965981 C 27.944107,26.133697 24.5618,35.036069 24.5618,35.527611 c 0,0.491542 -0.762211,11.687778 -0.666934,12.124704 0.09528,0.436926 8.384312,10.704695 8.384312,10.704695 l 12.814657,-2.621558 c 0,0 3.007815,16.113931 9.632461,2.959055 6.624647,-13.154876 4.754257,-4.324451 4.754257,-4.324451 0,0 4.773387,-4.386838 4.57326,-5.243115 -0.200126,-0.856276 0.785403,0.411246 0,-2.949252 -0.785401,-3.360499 -1.048038,-6.936206 -0.952762,-7.810057 0.09528,-0.873853 0.09528,-4.1508 0.762209,-5.898505 0.666935,-1.747704 1.190954,-5.29773 0.76221,-6.171583 -0.428743,-0.873852 -1.048039,-2.130015 -2.191354,-2.894636 -1.143314,-0.764621 -2.810649,0.491542 -5.57366,0.710004 -2.763012,0.218464 -8.336674,1.31078 -9.71818,0.819238 -1.381506,-0.491542 -4.049242,-1.966169 -4.049242,-1.966169 z"
       id="path1901-3" />
  </g>
</svg>
