<?xml version="1.0" encoding="UTF-8" standalone="no"?>
<!-- Created with Inkscape (http://www.inkscape.org/) -->

<svg
   width="70px"
   height="70px"
   viewBox="0 0 70 70"
   version="1.1"
   id="SVGRoot"
   sodipodi:docname="rock-1-N-A.svg"
   inkscape:version="1.1 (c68e22c387, 2021-05-23)"
   xmlns:inkscape="http://www.inkscape.org/namespaces/inkscape"
   xmlns:sodipodi="http://sodipodi.sourceforge.net/DTD/sodipodi-0.dtd"
   xmlns="http://www.w3.org/2000/svg"
   xmlns:svg="http://www.w3.org/2000/svg">
  <sodipodi:namedview
     id="namedview993"
     pagecolor="#505050"
     bordercolor="#eeeeee"
     borderopacity="1"
     inkscape:pageshadow="0"
     inkscape:pageopacity="0"
     inkscape:pagecheckerboard="0"
     inkscape:document-units="px"
     showgrid="false"
     inkscape:zoom="6.221717"
     inkscape:cx="54.888385"
     inkscape:cy="45.485836"
     inkscape:window-width="1904"
     inkscape:window-height="1028"
     inkscape:window-x="0"
     inkscape:window-y="0"
     inkscape:window-maximized="0"
     inkscape:current-layer="layer1" />
  <defs
     id="defs988" />
  <g
     inkscape:label="Layer 1"
     inkscape:groupmode="layer"
     id="layer1">
    <path
       style="fill:#666666;stroke:#000000;stroke-width:0.270748px;stroke-linecap:butt;stroke-linejoin:miter;stroke-opacity:1"
       d="m 23.89029,10.623929 c -6.462044,1.351246 -7.904827,5.148711 -7.904827,5.358387 0,0.209676 -0.325134,4.985629 -0.284493,5.172008 0.04064,0.186378 3.576478,4.566277 3.576478,4.566277 l 5.46632,-1.118272 c 0,0 1.283036,6.873684 4.108897,1.262238 2.82586,-5.611446 2.028012,-1.844671 2.028012,-1.844671 0,0 2.036173,-1.871284 1.950806,-2.236544 -0.08537,-0.36526 0.335027,0.175424 0,-1.258056 -0.335028,-1.43348 -0.44706,-2.958762 -0.406418,-3.331519 0.04064,-0.372757 0.04064,-1.770597 0.325134,-2.516112 0.284493,-0.745514 0.508022,-2.259841 0.325134,-2.632598 -0.182888,-0.372758 -0.447059,-0.908596 -0.934761,-1.234759 -0.487701,-0.326163 -1.198932,0.209676 -2.377544,0.302865 -1.178612,0.09319 -3.556156,0.559136 -4.145462,0.34946 C 25.02826,11.252957 23.89029,10.623929 23.89029,10.623929 Z"
       id="path1901" />
    <path
       style="fill:#666666;stroke:#000000;stroke-width:0.314947px;stroke-linecap:butt;stroke-linejoin:miter;stroke-opacity:1"
       d="m 35.227525,21.039677 c -7.516965,1.571836 -9.195281,5.989232 -9.195281,6.233138 0,0.243905 -0.378212,5.799527 -0.330936,6.016332 0.04727,0.216804 4.160334,5.311716 4.160334,5.311716 l 6.35869,-1.300828 c 0,0 1.49249,7.995805 4.77967,1.468297 3.287178,-6.527508 2.359082,-2.145812 2.359082,-2.145812 0,0 2.368576,-2.176769 2.269273,-2.601657 -0.09931,-0.424888 0.38972,0.204062 0,-1.463432 -0.389721,-1.667494 -0.520042,-3.441776 -0.472765,-3.875386 0.04727,-0.433609 0.04727,-2.059645 0.378212,-2.926864 0.330936,-0.867218 0.590956,-2.628757 0.378211,-3.062367 -0.212744,-0.43361 -0.52004,-1.056923 -1.087359,-1.436331 -0.567318,-0.379409 -1.394656,0.243905 -2.765675,0.352307 -1.371019,0.108403 -4.136695,0.650414 -4.822204,0.406509 -0.68551,-0.243906 -2.009252,-0.975622 -2.009252,-0.975622 z"
       id="path1901-9" />
    <path
       style="fill:#666666;stroke:#000000;stroke-width:0.270748px;stroke-linecap:butt;stroke-linejoin:miter;stroke-opacity:1"
       d="m 44.958314,43.213705 c -1.351246,-6.462044 -5.148711,-7.904827 -5.358387,-7.904827 -0.209676,0 -4.985629,-0.325134 -5.172008,-0.284493 -0.186378,0.04064 -4.566277,3.576478 -4.566277,3.576478 l 1.118272,5.46632 c 0,0 -6.873684,1.283036 -1.262238,4.108897 5.611446,2.82586 1.844671,2.028012 1.844671,2.028012 0,0 1.871284,2.036173 2.236544,1.950806 0.36526,-0.08537 -0.175424,0.335027 1.258056,0 1.43348,-0.335028 2.958762,-0.44706 3.331519,-0.406418 0.372757,0.04064 1.770597,0.04064 2.516112,0.325134 0.745514,0.284493 2.259841,0.508022 2.632598,0.325134 0.372758,-0.182888 0.908596,-0.447059 1.234759,-0.934761 0.326163,-0.487701 -0.209676,-1.198932 -0.302865,-2.377544 -0.09319,-1.178612 -0.559136,-3.556156 -0.34946,-4.145462 0.209676,-0.589306 0.838704,-1.727276 0.838704,-1.727276 z"
       id="path1901-92" />
  </g>
</svg>
