<?xml version="1.0" encoding="UTF-8" standalone="no"?>
<!-- Created with Inkscape (http://www.inkscape.org/) -->

<svg
   width="70px"
   height="70px"
   viewBox="0 0 70 70"
   version="1.1"
   id="SVGRoot"
   sodipodi:docname="carcass-1-N-A.svg"
   inkscape:version="1.1 (c68e22c387, 2021-05-23)"
   xmlns:inkscape="http://www.inkscape.org/namespaces/inkscape"
   xmlns:sodipodi="http://sodipodi.sourceforge.net/DTD/sodipodi-0.dtd"
   xmlns="http://www.w3.org/2000/svg"
   xmlns:svg="http://www.w3.org/2000/svg">
  <sodipodi:namedview
     id="namedview993"
     pagecolor="#505050"
     bordercolor="#eeeeee"
     borderopacity="1"
     inkscape:pageshadow="0"
     inkscape:pageopacity="0"
     inkscape:pagecheckerboard="0"
     inkscape:document-units="px"
     showgrid="false"
     inkscape:zoom="8.7988366"
     inkscape:cx="14.604203"
     inkscape:cy="32.7316"
     inkscape:window-width="1904"
     inkscape:window-height="1028"
     inkscape:window-x="0"
     inkscape:window-y="0"
     inkscape:window-maximized="0"
     inkscape:current-layer="layer1" />
  <defs
     id="defs988">
    <marker
       style="overflow:visible;"
       id="Arrow1Lend"
       refX="0.0"
       refY="0.0"
       orient="auto"
       inkscape:stockid="Arrow1Lend"
       inkscape:isstock="true">
      <path
         transform="scale(0.8) rotate(180) translate(12.5,0)"
         style="fill-rule:evenodd;fill:context-stroke;stroke:context-stroke;stroke-width:1.0pt;"
         d="M 0.0,0.0 L 5.0,-5.0 L -12.5,0.0 L 5.0,5.0 L 0.0,0.0 z "
         id="path8418" />
    </marker>
    <linearGradient
       id="linearGradient4147"
       inkscape:swatch="solid">
      <stop
         style="stop-color:#000000;stop-opacity:1;"
         offset="0"
         id="stop4145" />
    </linearGradient>
  </defs>
  <g
     inkscape:label="Layer 1"
     inkscape:groupmode="layer"
     id="layer1">
    <path
       style="fill:#e3dac9;fill-opacity:1;stroke:#c7b791;stroke-width:2.05207px;stroke-linecap:butt;stroke-linejoin:miter;stroke-opacity:1"
       d="M 12.914862,4.6250086 C 9.5633206,1.2494085 9.5633206,9.5585794 9.5633206,9.5585794 c 0,0 2.3041864,0.7789846 0,0 C 7.2591362,8.7795952 6.42125,14.232487 6.42125,14.232487 c 0,0 -2.9325981,-4.6739076 0,0 2.9325999,4.673908 7.540969,2.336953 7.540969,2.336953 0,0 -22.2039631,-21.8115693 0,0 22.203965,21.811571 40.009029,38.170248 40.009029,38.170248 0,0 -1.885243,1.817631 -1.256829,5.972216 0.628416,4.154586 4.817841,2.077294 6.284141,0.519323 1.4663,-1.557968 4.189428,-3.115937 4.817841,-5.193231 0.628414,-2.077292 2.723128,-7.789845 -0.628413,-7.530185 -3.351542,0.259663 -3.770485,1.038648 -5.027314,1.038648 -1.256827,0 -40.218498,-35.054311 -40.637441,-38.689572 C 17.10429,7.2216243 12.914862,4.6250086 12.914862,4.6250086 Z"
       id="path995" />
  </g>
</svg>
