<?xml version="1.0" encoding="UTF-8" standalone="no"?>
<!-- Created with Inkscape (http://www.inkscape.org/) -->

<svg
   width="70px"
   height="70px"
   viewBox="0 0 70 70"
   version="1.1"
   id="SVGRoot"
   sodipodi:docname="carcass-1-1-1.svg"
   inkscape:version="1.1 (c68e22c387, 2021-05-23)"
   xmlns:inkscape="http://www.inkscape.org/namespaces/inkscape"
   xmlns:sodipodi="http://sodipodi.sourceforge.net/DTD/sodipodi-0.dtd"
   xmlns="http://www.w3.org/2000/svg"
   xmlns:svg="http://www.w3.org/2000/svg">
  <sodipodi:namedview
     id="namedview993"
     pagecolor="#505050"
     bordercolor="#eeeeee"
     borderopacity="1"
     inkscape:pageshadow="0"
     inkscape:pageopacity="0"
     inkscape:pagecheckerboard="0"
     inkscape:document-units="px"
     showgrid="false"
     inkscape:zoom="8.7988366"
     inkscape:cx="14.604203"
     inkscape:cy="32.7316"
     inkscape:window-width="1904"
     inkscape:window-height="1028"
     inkscape:window-x="0"
     inkscape:window-y="0"
     inkscape:window-maximized="0"
     inkscape:current-layer="layer1" />
  <defs
     id="defs988">
    <marker
       style="overflow:visible;"
       id="Arrow1Lend"
       refX="0.0"
       refY="0.0"
       orient="auto"
       inkscape:stockid="Arrow1Lend"
       inkscape:isstock="true">
      <path
         transform="scale(0.8) rotate(180) translate(12.5,0)"
         style="fill-rule:evenodd;fill:context-stroke;stroke:context-stroke;stroke-width:1.0pt;"
         d="M 0.0,0.0 L 5.0,-5.0 L -12.5,0.0 L 5.0,5.0 L 0.0,0.0 z "
         id="path8418" />
    </marker>
    <linearGradient
       id="linearGradient4147"
       inkscape:swatch="solid">
      <stop
         style="stop-color:#000000;stop-opacity:1;"
         offset="0"
         id="stop4145" />
    </linearGradient>
  </defs>
  <g
     inkscape:label="Layer 1"
     inkscape:groupmode="layer"
     id="layer1">
    <path
       style="fill:#e3dac9;fill-opacity:1;stroke:#c7b791;stroke-width:2.05207px;stroke-linecap:butt;stroke-linejoin:miter;stroke-opacity:1"
       d="M 12.914862,4.6250086 C 9.5633206,1.2494085 9.5633206,9.5585794 9.5633206,9.5585794 c 0,0 2.3041864,0.7789846 0,0 C 7.2591362,8.7795952 6.42125,14.232487 6.42125,14.232487 c 0,0 -2.9325981,-4.6739076 0,0 2.9325999,4.673908 7.540969,2.336953 7.540969,2.336953 0,0 -22.2039631,-21.8115693 0,0 22.203965,21.811571 40.009029,38.170248 40.009029,38.170248 0,0 -1.885243,1.817631 -1.256829,5.972216 0.628416,4.154586 4.817841,2.077294 6.284141,0.519323 1.4663,-1.557968 4.189428,-3.115937 4.817841,-5.193231 0.628414,-2.077292 2.723128,-7.789845 -0.628413,-7.530185 -3.351542,0.259663 -3.770485,1.038648 -5.027314,1.038648 -1.256827,0 -40.218498,-35.054311 -40.637441,-38.689572 C 17.10429,7.2216243 12.914862,4.6250086 12.914862,4.6250086 Z"
       id="path995" />
    <path
       style="fill:#e3dac9;fill-opacity:1;stroke:#c7b791;stroke-width:2.05207px;stroke-linecap:butt;stroke-linejoin:miter;stroke-opacity:1"
       d="M 53.930495,9.3649857 C 56.665084,5.4727456 48.485036,6.931898 48.485036,6.931898 c 0,0 -0.362247,2.4051756 0,0 0.362247,-2.4051735 -5.153048,-2.2724706 -5.153048,-2.2724706 0,0 4.086291,-3.70779941 0,0 -4.086289,3.7078011 -0.976386,7.8341696 -0.976386,7.8341696 0,0 17.573441,-25.689192 0,0 -17.573443,25.689196 -30.551209,46.09028 -30.551209,46.09028 0,0 -2.1204489,-1.536757 -6.1001182,-0.188532 -3.9796704,1.348227 -1.1989646,5.107761 0.5922891,6.277684 1.7912508,1.169923 3.8032111,3.577143 5.9585791,3.831003 2.155365,0.25386 8.146994,1.312857 7.302814,-1.941004 -0.844184,-3.253862 -1.684633,-3.529499 -1.905342,-4.766797 -0.220703,-1.237297 27.446908,-45.749312 30.952109,-46.800124 3.505201,-1.050812 5.325771,-5.6311213 5.325771,-5.6311213 z"
       id="path995-2" />
    <path
       style="fill:#e3dac9;fill-opacity:1;stroke:#c7b791;stroke-width:0.925906px;stroke-linecap:butt;stroke-linejoin:miter;stroke-opacity:1"
       d="m 27.392453,56.534405 c -1.571263,1.072264 1.217468,2.777471 1.217468,2.777471 0,0 0.562803,-1.053579 0,0 -0.562802,1.053578 1.157717,2.613871 1.157717,2.613871 0,0 -1.952209,0.585201 0,0 1.952209,-0.585201 1.770596,-3.491673 1.770596,-3.491673 0,0 -10.224422,7.216994 0,0 10.224423,-7.216993 18.043419,-13.236459 18.043419,-13.236459 0,0 0.363469,1.36583 1.840023,1.887495 1.476555,0.521664 1.327298,-2.110893 0.996184,-3.20281 -0.331113,-1.091916 -0.497848,-2.845709 -1.112842,-3.602949 -0.614994,-0.75724 -2.258283,-3.032698 -2.609476,-1.214405 -0.351192,1.818293 -0.144541,2.198782 -0.308919,2.86066 -0.164378,0.661876 -17.025042,13.986222 -18.299904,13.460821 -1.274863,-0.525403 -2.694266,1.147978 -2.694266,1.147978 z"
       id="path995-6" />
    <path
       style="fill:#e3dac9;fill-opacity:1;stroke:#c7b791;stroke-width:0.925906px;stroke-linecap:butt;stroke-linejoin:miter;stroke-opacity:1"
       d="m 16.596119,22.856923 c -1.571263,1.072264 1.217468,2.777471 1.217468,2.777471 0,0 0.562803,-1.053579 0,0 -0.562802,1.053578 1.157717,2.613871 1.157717,2.613871 0,0 -1.952209,0.585201 0,0 1.952209,-0.585201 1.770596,-3.491673 1.770596,-3.491673 0,0 -10.224422,7.216994 0,0 10.224423,-7.216993 18.043419,-13.236459 18.043419,-13.236459 0,0 0.363469,1.36583 1.840023,1.887495 1.476555,0.521664 1.327298,-2.110893 0.996184,-3.20281 C 41.290413,9.112902 41.123678,7.359109 40.508684,6.601869 39.89369,5.844629 38.250401,3.569171 37.899208,5.387464 37.548016,7.205757 37.754667,7.586246 37.590289,8.248124 37.425911,8.91 20.565247,22.234346 19.290385,21.708945 c -1.274863,-0.525403 -2.694266,1.147978 -2.694266,1.147978 z"
       id="path995-6-1" />
    <path
       style="fill:#e3dac9;fill-opacity:1;stroke:#c7b791;stroke-width:0.925906px;stroke-linecap:butt;stroke-linejoin:miter;stroke-opacity:1"
       d="m 21.164192,35.778773 c -1.003841,-1.615834 -2.827162,1.097144 -2.827162,1.097144 0,0 1.028454,0.607502 0,0 -1.028453,-0.6075 -2.661149,1.04447 -2.661149,1.04447 0,0 -0.500878,-1.975526 0,0 0.500878,1.975526 3.412466,1.918818 3.412466,1.918818 0,0 -6.771538,-10.524736 0,0 6.771538,10.524737 12.449887,18.594869 12.449887,18.594869 0,0 -1.380171,0.304516 -1.964725,1.757321 -0.584554,1.452806 2.051984,1.416669 3.157105,1.132723 1.105121,-0.283946 2.864453,-0.375259 3.64739,-0.957188 0.782936,-0.581928 3.126823,-2.126046 1.325278,-2.554952 -1.801546,-0.428905 -2.190553,-0.238774 -2.844766,-0.431407 -0.654212,-0.192632 -13.242665,-17.609608 -12.663034,-18.860746 0.579632,-1.25114 -1.03129,-2.741052 -1.03129,-2.741052 z"
       id="path995-6-8" />
    <path
       style="fill:#e3dac9;fill-opacity:1;stroke:#c7b791;stroke-width:1.24946px;stroke-linecap:butt;stroke-linejoin:miter;stroke-opacity:1"
       d="M 30.301157,9.6219626 C 28.004312,8.40398 27.976182,12.884101 27.976182,12.884101 c 0,0 1.584301,0.0061 0,0 -1.584301,-0.0061 -2.17983,3.084506 -2.17983,3.084506 0,0 -2.003917,-1.993257 0,0 2.003916,1.993259 5.185704,-0.09462 5.185704,-0.09462 0,0 -15.218471,-7.7716145 0,0 15.21847,7.771616 27.425791,13.393365 27.425791,13.393365 0,0 -1.304556,1.318691 -0.885821,3.445863 0.418738,2.127173 3.311111,0.25456 4.326256,-0.84887 1.015143,-1.103426 2.895891,-2.432629 3.335724,-3.665547 0.439834,-1.232918 1.901845,-4.689293 -0.407308,-3.947221 C 62.467546,24.99365 62.176374,25.48892 61.31077,25.714696 60.445168,25.940471 33.730164,14.039002 33.453936,12.154209 33.177709,10.269413 30.301157,9.6219626 30.301157,9.6219626 Z"
       id="path995-6-9" />
  </g>
</svg>
