<?xml version="1.0" encoding="UTF-8" standalone="no"?>
<!-- Created with Inkscape (http://www.inkscape.org/) -->

<svg
   width="70px"
   height="70px"
   viewBox="0 0 70 70"
   version="1.1"
   id="SVGRoot"
   sodipodi:docname="tree-N-A-1.svg"
   inkscape:version="1.1 (c68e22c387, 2021-05-23)"
   xmlns:inkscape="http://www.inkscape.org/namespaces/inkscape"
   xmlns:sodipodi="http://sodipodi.sourceforge.net/DTD/sodipodi-0.dtd"
   xmlns="http://www.w3.org/2000/svg"
   xmlns:svg="http://www.w3.org/2000/svg">
  <sodipodi:namedview
     id="namedview993"
     pagecolor="#505050"
     bordercolor="#eeeeee"
     borderopacity="1"
     inkscape:pageshadow="0"
     inkscape:pageopacity="0"
     inkscape:pagecheckerboard="0"
     inkscape:document-units="px"
     showgrid="false"
     inkscape:zoom="8.7988366"
     inkscape:cx="34.265894"
     inkscape:cy="34.152242"
     inkscape:window-width="1920"
     inkscape:window-height="1017"
     inkscape:window-x="-8"
     inkscape:window-y="-8"
     inkscape:window-maximized="1"
     inkscape:current-layer="layer1" />
  <defs
     id="defs988">
    <marker
       style="overflow:visible;"
       id="Arrow1Lend"
       refX="0.0"
       refY="0.0"
       orient="auto"
       inkscape:stockid="Arrow1Lend"
       inkscape:isstock="true">
      <path
         transform="scale(0.8) rotate(180) translate(12.5,0)"
         style="fill-rule:evenodd;fill:context-stroke;stroke:context-stroke;stroke-width:1.0pt;"
         d="M 0.0,0.0 L 5.0,-5.0 L -12.5,0.0 L 5.0,5.0 L 0.0,0.0 z "
         id="path8418" />
    </marker>
    <linearGradient
       id="linearGradient4147"
       inkscape:swatch="solid">
      <stop
         style="stop-color:#000000;stop-opacity:1;"
         offset="0"
         id="stop4145" />
    </linearGradient>
  </defs>
  <g
     inkscape:label="Layer 1"
     inkscape:groupmode="layer"
     id="layer1">
    <circle
       style="fill:#3d3635;fill-opacity:1;stroke-width:0.163517"
       id="path1151-89"
       cx="18.582006"
       cy="21.536943"
       r="5.5626683" />
    <path
       id="path1297-0"
       style="fill:#725c42;fill-opacity:0.5;stroke-width:0.1928"
       d="m 17.502582,16.932216 c 0,0 -0.932391,0.191574 -1.060122,0.268213 -0.127731,0.07664 -0.102126,0.600359 -0.715233,0.779182 -0.306432,0.08938 -0.593595,0.162798 -0.804328,0.213887 a 4.9431751,4.8090576 0 0 0 -3.1e-4,0 4.9431751,4.8090576 0 0 0 -1.3541,3.292433 4.9431751,4.8090576 0 0 0 1.60555,3.546055 c 0.05586,-0.07858 0.106167,-0.177087 0.106167,-0.248655 0,-0.114958 0.115049,0.08938 -0.02546,-0.166081 -0.140504,-0.255462 -0.242818,-0.191476 -0.05122,-0.383072 0.191595,-0.191596 0.344836,-0.344882 0.447021,-0.434293 0.102184,-0.08941 0.281197,-0.102351 0.383382,-0.127898 0.102185,-0.02555 0.485204,-0.204263 0.485204,-0.204263 -0.178823,1.04739 -0.561888,0.830223 -0.472477,1.405011 0.08386,0.539126 0.275276,0.553676 0.109583,0.837543 a 4.9431751,4.8090576 0 0 0 2.355552,0.584542 4.9431751,4.8090576 0 0 0 4.867559,-4.012322 c -0.845319,-1.244541 -0.108365,-1.148991 -0.85679,-1.198886 -0.611217,-0.04075 0.399972,-0.386647 0.838785,-0.526491 a 4.9431751,4.8090576 0 0 0 -3.271943,-3.617454 c -1.23794,0.174975 -2.586824,-0.0074 -2.586824,-0.0074 z" />
    <path
       sodipodi:type="spiral"
       style="fill:none;fill-rule:evenodd;stroke:#ae4712;stroke-width:2.73642;stroke-miterlimit:4;stroke-dasharray:none;stroke-opacity:0.302941"
       id="path9351-5"
       sodipodi:cx="32.788376"
       sodipodi:cy="32.788376"
       sodipodi:expansion="1"
       sodipodi:revolution="11.149896"
       sodipodi:radius="88.349548"
       sodipodi:argument="-19.529577"
       sodipodi:t0="0"
       transform="matrix(0.05424677,0,0,0.05565627,16.692698,19.809313)"
       d="m 32.788376,32.788376 c 0.926742,-0.749453 1.46747,0.879476 1.24564,1.540306 -0.601143,1.790809 -2.981291,1.837169 -4.326253,0.950975 -2.405821,-1.585194 -2.342515,-5.034126 -0.656309,-7.1122 2.474577,-3.049657 7.116024,-2.866202 9.898147,-0.361643 3.708131,3.338182 3.397903,9.208398 0.06698,12.684093 -4.19163,4.373808 -11.305803,3.933792 -15.470039,-0.227688 -5.043448,-5.040111 -4.472114,-13.406052 0.522354,-18.255986 5.885807,-5.715481 15.508071,-5.011964 21.041932,0.817019 6.389062,6.729791 5.552833,17.611276 -1.111685,23.82788 C 36.426492,53.714831 24.283829,52.745546 17.385314,45.244781 9.6462227,36.830056 10.748801,23.424829 19.086331,15.845008 28.342569,7.42997 43.011379,8.6660091 51.27205,17.84069 60.363455,27.938023 58.993831,43.871187 48.981702,52.812356 38.043596,62.580455 20.845481,61.077153 11.224089,50.227342 0.77903951,38.448713 2.4160919,19.985175 14.103769,9.683783 26.722722,-1.4384257 46.452064,0.33243445 57.433275,12.858128 69.232812,26.317244 67.328098,47.3127 53.964264,58.973581 39.665118,71.450587 17.403292,69.411982 5.0628644,55.209904 -8.0917275,40.070838 -5.919201,16.542426 9.1212069,3.5225582 25.1001,-10.309719 49.89528,-8.0032447 63.5945,7.8755664 78.104546,24.694209 75.664103,50.756311 58.946826,65.134806 41.288501,80.322694 13.959343,77.748264 -1.0983604,60.192466 -16.964153,41.694517 -14.255719,13.098188 4.138645,-2.6386665 23.476168,-19.182418 53.339769,-16.339968 69.755724,2.8930045 86.977483,23.070058 84.001005,54.201019 63.929388,71.296031 42.912842,89.195839 10.514443,86.085321 -7.2595851,65.175028 -25.83748,43.319025 -22.592914,9.6531187 -0.84391691,-8.7998913 21.851515,-28.055906 56.784989,-24.677285 75.916949,-2.0895574 95.851114,21.445275 92.338429,57.646373 68.91195,77.457255 44.537741,98.069597 7.0689699,94.422842 -13.42081,70.15759 -34.711352,44.944026 -30.930522,6.2075379 -5.8264788,-14.961116 20.226421,-36.929881 60.230667,-33.01497 82.078174,-7.0721193 104.72518,19.820098 100.67619,61.092138 73.894511,83.61848 46.162992,106.94375 3.6231248,102.76066 -19.582035,75.140152 -43.585578,46.569346 -39.2684,2.7616203 -10.809041,-21.122341 c 29.41008,-24.681835 74.485691,-20.23056 99.04844,9.06766 C 113.59954,18.19466 109.01416,64.538183 78.877073,89.779705 47.788482,115.81816 0.17702472,111.09869 -25.743259,80.122714 -52.460047,48.194882 -47.606465,-0.68453098 -15.791603,-27.283566 16.975459,-54.678693 67.122849,-49.691003 94.400624,-17.037243 122.4741,16.56904 117.3523,67.984425 83.859635,95.94093 49.414139,124.69277 -3.2692577,119.43686 -31.904484,85.105276 -61.33469,49.820573 -55.944663,-4.1308509 -20.774164,-33.44479 c 36.1239,-30.108582 91.343368,-24.58444 121.336014,11.424985 17.82057,21.39553306 24.38328,50.696608 17.5656,77.674858" />
    <circle
       style="fill:#3d3635;fill-opacity:1;stroke-width:0.163517"
       id="path1151-89-8"
       cx="31.936041"
       cy="54.552666"
       r="5.5626683" />
    <path
       id="path1297-0-1"
       style="fill:#725c42;fill-opacity:0.5;stroke-width:0.1928"
       d="m 30.856615,49.94794 c 0,0 -0.932391,0.191574 -1.060122,0.268213 -0.127731,0.07664 -0.102126,0.600359 -0.715232,0.779182 -0.306433,0.08938 -0.593596,0.162798 -0.804329,0.213887 a 4.9431751,4.8090576 0 0 0 -3.1e-4,0 4.9431751,4.8090576 0 0 0 -1.3541,3.292433 4.9431751,4.8090576 0 0 0 1.60555,3.546055 c 0.05586,-0.07858 0.106167,-0.177087 0.106167,-0.248655 0,-0.114958 0.11505,0.08938 -0.02546,-0.166081 -0.140504,-0.255462 -0.242818,-0.191476 -0.05122,-0.383072 0.191595,-0.191596 0.344836,-0.344882 0.447021,-0.434293 0.102184,-0.08941 0.281197,-0.102351 0.383382,-0.127898 0.102185,-0.02555 0.485204,-0.204263 0.485204,-0.204263 -0.178823,1.04739 -0.561888,0.830223 -0.472477,1.405011 0.08386,0.539126 0.275276,0.553676 0.109583,0.837543 a 4.9431751,4.8090576 0 0 0 2.355552,0.584542 4.9431751,4.8090576 0 0 0 4.867559,-4.012322 c -0.845319,-1.244541 -0.108365,-1.148991 -0.85679,-1.198886 -0.611217,-0.04075 0.399972,-0.386647 0.838785,-0.526491 a 4.9431751,4.8090576 0 0 0 -3.271943,-3.617454 c -1.23794,0.174975 -2.586824,-0.0074 -2.586824,-0.0074 z" />
    <path
       sodipodi:type="spiral"
       style="fill:none;fill-rule:evenodd;stroke:#ae4712;stroke-width:2.73642;stroke-miterlimit:4;stroke-dasharray:none;stroke-opacity:0.302941"
       id="path9351-5-7"
       sodipodi:cx="32.788376"
       sodipodi:cy="32.788376"
       sodipodi:expansion="1"
       sodipodi:revolution="11.149896"
       sodipodi:radius="88.349548"
       sodipodi:argument="-19.529577"
       sodipodi:t0="0"
       transform="matrix(0.05424677,0,0,0.05565627,30.046731,52.825037)"
       d="m 32.788376,32.788376 c 0.926742,-0.749453 1.46747,0.879476 1.24564,1.540306 -0.601143,1.790809 -2.981291,1.837169 -4.326253,0.950975 -2.405821,-1.585194 -2.342515,-5.034126 -0.656309,-7.1122 2.474577,-3.049657 7.116024,-2.866202 9.898147,-0.361643 3.708131,3.338182 3.397903,9.208398 0.06698,12.684093 -4.19163,4.373808 -11.305803,3.933792 -15.470039,-0.227688 -5.043448,-5.040111 -4.472114,-13.406052 0.522354,-18.255986 5.885807,-5.715481 15.508071,-5.011964 21.041932,0.817019 6.389062,6.729791 5.552833,17.611276 -1.111685,23.82788 C 36.426492,53.714831 24.283829,52.745546 17.385314,45.244781 9.6462227,36.830056 10.748801,23.424829 19.086331,15.845008 28.342569,7.42997 43.011379,8.6660091 51.27205,17.84069 60.363455,27.938023 58.993831,43.871187 48.981702,52.812356 38.043596,62.580455 20.845481,61.077153 11.224089,50.227342 0.77903951,38.448713 2.4160919,19.985175 14.103769,9.683783 26.722722,-1.4384257 46.452064,0.33243445 57.433275,12.858128 69.232812,26.317244 67.328098,47.3127 53.964264,58.973581 39.665118,71.450587 17.403292,69.411982 5.0628644,55.209904 -8.0917275,40.070838 -5.919201,16.542426 9.1212069,3.5225582 25.1001,-10.309719 49.89528,-8.0032447 63.5945,7.8755664 78.104546,24.694209 75.664103,50.756311 58.946826,65.134806 41.288501,80.322694 13.959343,77.748264 -1.0983604,60.192466 -16.964153,41.694517 -14.255719,13.098188 4.138645,-2.6386665 23.476168,-19.182418 53.339769,-16.339968 69.755724,2.8930045 86.977483,23.070058 84.001005,54.201019 63.929388,71.296031 42.912842,89.195839 10.514443,86.085321 -7.2595851,65.175028 -25.83748,43.319025 -22.592914,9.6531187 -0.84391691,-8.7998913 21.851515,-28.055906 56.784989,-24.677285 75.916949,-2.0895574 95.851114,21.445275 92.338429,57.646373 68.91195,77.457255 44.537741,98.069597 7.0689699,94.422842 -13.42081,70.15759 -34.711352,44.944026 -30.930522,6.2075379 -5.8264788,-14.961116 20.226421,-36.929881 60.230667,-33.01497 82.078174,-7.0721193 104.72518,19.820098 100.67619,61.092138 73.894511,83.61848 46.162992,106.94375 3.6231248,102.76066 -19.582035,75.140152 -43.585578,46.569346 -39.2684,2.7616203 -10.809041,-21.122341 c 29.41008,-24.681835 74.485691,-20.23056 99.04844,9.06766 C 113.59954,18.19466 109.01416,64.538183 78.877073,89.779705 47.788482,115.81816 0.17702472,111.09869 -25.743259,80.122714 -52.460047,48.194882 -47.606465,-0.68453098 -15.791603,-27.283566 16.975459,-54.678693 67.122849,-49.691003 94.400624,-17.037243 122.4741,16.56904 117.3523,67.984425 83.859635,95.94093 49.414139,124.69277 -3.2692577,119.43686 -31.904484,85.105276 -61.33469,49.820573 -55.944663,-4.1308509 -20.774164,-33.44479 c 36.1239,-30.108582 91.343368,-24.58444 121.336014,11.424985 17.82057,21.39553306 24.38328,50.696608 17.5656,77.674858" />
    <circle
       style="fill:#3d3635;fill-opacity:1;stroke-width:0.0900187"
       id="path1151-89-4"
       cx="48.870098"
       cy="18.979782"
       r="3.0623379" />
    <path
       id="path1297-0-2"
       style="fill:#725c42;fill-opacity:0.5;stroke-width:0.106139"
       d="m 48.275858,16.444806 c 0,0 -0.513296,0.105464 -0.583614,0.147655 -0.07032,0.04219 -0.05622,0.330508 -0.393747,0.428953 -0.168696,0.04921 -0.326784,0.08962 -0.442796,0.117748 a 2.7212969,2.647463 0 0 0 -1.71e-4,0 2.7212969,2.647463 0 0 0 -0.745453,1.812537 2.7212969,2.647463 0 0 0 0.883881,1.95216 c 0.03075,-0.04326 0.05845,-0.09749 0.05845,-0.136889 0,-0.06329 0.06334,0.04921 -0.01402,-0.09143 -0.07735,-0.140636 -0.133675,-0.105411 -0.0282,-0.210887 0.105476,-0.105477 0.189837,-0.189863 0.246092,-0.239086 0.05625,-0.04922 0.154803,-0.05635 0.211058,-0.07041 0.05625,-0.01407 0.267112,-0.11245 0.267112,-0.11245 -0.09844,0.576605 -0.309328,0.457051 -0.260106,0.773481 0.04617,0.296798 0.151544,0.304808 0.06033,0.461081 a 2.7212969,2.647463 0 0 0 1.296769,0.3218 2.7212969,2.647463 0 0 0 2.679669,-2.208847 c -0.465361,-0.68514 -0.05966,-0.632538 -0.471676,-0.660006 -0.336485,-0.02243 0.220191,-0.212856 0.461764,-0.289842 a 2.7212969,2.647463 0 0 0 -1.801256,-1.991466 c -0.681506,0.09633 -1.424088,-0.0041 -1.424088,-0.0041 z" />
    <path
       sodipodi:type="spiral"
       style="fill:none;fill-rule:evenodd;stroke:#ae4712;stroke-width:2.73642;stroke-miterlimit:4;stroke-dasharray:none;stroke-opacity:0.302941"
       id="path9351-5-4"
       sodipodi:cx="32.788376"
       sodipodi:cy="32.788376"
       sodipodi:expansion="1"
       sodipodi:revolution="11.149896"
       sodipodi:radius="88.349548"
       sodipodi:argument="-19.529577"
       sodipodi:t0="0"
       transform="matrix(0.02986371,0,0,0.03063967,47.830004,18.028694)"
       d="m 32.788376,32.788376 c 0.926742,-0.749453 1.46747,0.879476 1.24564,1.540306 -0.601143,1.790809 -2.981291,1.837169 -4.326253,0.950975 -2.405821,-1.585194 -2.342515,-5.034126 -0.656309,-7.1122 2.474577,-3.049657 7.116024,-2.866202 9.898147,-0.361643 3.708131,3.338182 3.397903,9.208398 0.06698,12.684093 -4.19163,4.373808 -11.305803,3.933792 -15.470039,-0.227688 -5.043448,-5.040111 -4.472114,-13.406052 0.522354,-18.255986 5.885807,-5.715481 15.508071,-5.011964 21.041932,0.817019 6.389062,6.729791 5.552833,17.611276 -1.111685,23.82788 C 36.426492,53.714831 24.283829,52.745546 17.385314,45.244781 9.6462227,36.830056 10.748801,23.424829 19.086331,15.845008 28.342569,7.42997 43.011379,8.6660091 51.27205,17.84069 60.363455,27.938023 58.993831,43.871187 48.981702,52.812356 38.043596,62.580455 20.845481,61.077153 11.224089,50.227342 0.77903951,38.448713 2.4160919,19.985175 14.103769,9.683783 26.722722,-1.4384257 46.452064,0.33243445 57.433275,12.858128 69.232812,26.317244 67.328098,47.3127 53.964264,58.973581 39.665118,71.450587 17.403292,69.411982 5.0628644,55.209904 -8.0917275,40.070838 -5.919201,16.542426 9.1212069,3.5225582 25.1001,-10.309719 49.89528,-8.0032447 63.5945,7.8755664 78.104546,24.694209 75.664103,50.756311 58.946826,65.134806 41.288501,80.322694 13.959343,77.748264 -1.0983604,60.192466 -16.964153,41.694517 -14.255719,13.098188 4.138645,-2.6386665 23.476168,-19.182418 53.339769,-16.339968 69.755724,2.8930045 86.977483,23.070058 84.001005,54.201019 63.929388,71.296031 42.912842,89.195839 10.514443,86.085321 -7.2595851,65.175028 -25.83748,43.319025 -22.592914,9.6531187 -0.84391691,-8.7998913 21.851515,-28.055906 56.784989,-24.677285 75.916949,-2.0895574 95.851114,21.445275 92.338429,57.646373 68.91195,77.457255 44.537741,98.069597 7.0689699,94.422842 -13.42081,70.15759 -34.711352,44.944026 -30.930522,6.2075379 -5.8264788,-14.961116 20.226421,-36.929881 60.230667,-33.01497 82.078174,-7.0721193 104.72518,19.820098 100.67619,61.092138 73.894511,83.61848 46.162992,106.94375 3.6231248,102.76066 -19.582035,75.140152 -43.585578,46.569346 -39.2684,2.7616203 -10.809041,-21.122341 c 29.41008,-24.681835 74.485691,-20.23056 99.04844,9.06766 C 113.59954,18.19466 109.01416,64.538183 78.877073,89.779705 47.788482,115.81816 0.17702472,111.09869 -25.743259,80.122714 -52.460047,48.194882 -47.606465,-0.68453098 -15.791603,-27.283566 16.975459,-54.678693 67.122849,-49.691003 94.400624,-17.037243 122.4741,16.56904 117.3523,67.984425 83.859635,95.94093 49.414139,124.69277 -3.2692577,119.43686 -31.904484,85.105276 -61.33469,49.820573 -55.944663,-4.1308509 -20.774164,-33.44479 c 36.1239,-30.108582 91.343368,-24.58444 121.336014,11.424985 17.82057,21.39553306 24.38328,50.696608 17.5656,77.674858" />
    <ellipse
       style="fill:#3d3635;fill-opacity:1;stroke-width:0.137857"
       id="path1151-4"
       cx="55.007271"
       cy="-50.306568"
       rx="4.7102838"
       ry="4.6692848"
       transform="rotate(90)" />
    <path
       id="path1297-4"
       style="fill:#725c42;fill-opacity:0.5;stroke-width:0.162544"
       d="m 54.145298,54.249603 c 0,0 -0.160806,-0.789519 -0.225136,-0.897677 -0.06433,-0.108158 -0.503939,-0.08648 -0.654043,-0.605636 -0.07502,-0.259476 -0.136651,-0.502636 -0.179536,-0.681077 a 4.0367067,4.1857169 0 0 0 0,-2.63e-4 4.0367067,4.1857169 0 0 0 -2.763657,-1.146608 4.0367067,4.1857169 0 0 0 -2.976546,1.359527 c 0.06596,0.0473 0.148646,0.0899 0.20872,0.0899 0.09649,0 -0.07503,0.09742 0.139408,-0.02155 0.214433,-0.118973 0.160724,-0.205609 0.321549,-0.04338 0.160825,0.162238 0.289493,0.291997 0.364544,0.378523 0.07505,0.08653 0.08591,0.238109 0.107357,0.324636 0.02144,0.08653 0.171458,0.410854 0.171458,0.410854 -0.879176,-0.151421 -0.696886,-0.475788 -1.179362,-0.400077 -0.45254,0.07101 -0.464753,0.233094 -0.703031,0.09279 a 4.0367067,4.1857169 0 0 0 -0.490662,1.994603 4.0367067,4.1857169 0 0 0 3.36793,4.12169 c 1.044662,-0.715787 0.964458,-0.09176 1.00634,-0.725501 0.03421,-0.517558 0.324551,0.338683 0.441935,0.710255 a 4.0367067,4.1857169 0 0 0 3.036479,-2.770576 c -0.146873,-1.048245 0.0063,-2.190436 0.0063,-2.190436 z" />
    <path
       sodipodi:type="spiral"
       style="fill:none;fill-rule:evenodd;stroke:#ae4712;stroke-width:2.73642;stroke-miterlimit:4;stroke-dasharray:none;stroke-opacity:0.302941"
       id="path9351-3"
       sodipodi:cx="32.788376"
       sodipodi:cy="32.788376"
       sodipodi:expansion="1"
       sodipodi:revolution="11.149896"
       sodipodi:radius="88.349548"
       sodipodi:argument="-19.529577"
       sodipodi:t0="0"
       transform="matrix(0,0.04593437,-0.04671769,0,51.74968,53.393299)"
       d="m 32.788376,32.788376 c 0.926742,-0.749453 1.46747,0.879476 1.24564,1.540306 -0.601143,1.790809 -2.981291,1.837169 -4.326253,0.950975 -2.405821,-1.585194 -2.342515,-5.034126 -0.656309,-7.1122 2.474577,-3.049657 7.116024,-2.866202 9.898147,-0.361643 3.708131,3.338182 3.397903,9.208398 0.06698,12.684093 -4.19163,4.373808 -11.305803,3.933792 -15.470039,-0.227688 -5.043448,-5.040111 -4.472114,-13.406052 0.522354,-18.255986 5.885807,-5.715481 15.508071,-5.011964 21.041932,0.817019 6.389062,6.729791 5.552833,17.611276 -1.111685,23.82788 C 36.426492,53.714831 24.283829,52.745546 17.385314,45.244781 9.6462227,36.830056 10.748801,23.424829 19.086331,15.845008 28.342569,7.42997 43.011379,8.6660091 51.27205,17.84069 60.363455,27.938023 58.993831,43.871187 48.981702,52.812356 38.043596,62.580455 20.845481,61.077153 11.224089,50.227342 0.77903951,38.448713 2.4160919,19.985175 14.103769,9.683783 26.722722,-1.4384257 46.452064,0.33243445 57.433275,12.858128 69.232812,26.317244 67.328098,47.3127 53.964264,58.973581 39.665118,71.450587 17.403292,69.411982 5.0628644,55.209904 -8.0917275,40.070838 -5.919201,16.542426 9.1212069,3.5225582 25.1001,-10.309719 49.89528,-8.0032447 63.5945,7.8755664 78.104546,24.694209 75.664103,50.756311 58.946826,65.134806 41.288501,80.322694 13.959343,77.748264 -1.0983604,60.192466 -16.964153,41.694517 -14.255719,13.098188 4.138645,-2.6386665 23.476168,-19.182418 53.339769,-16.339968 69.755724,2.8930045 86.977483,23.070058 84.001005,54.201019 63.929388,71.296031 42.912842,89.195839 10.514443,86.085321 -7.2595851,65.175028 -25.83748,43.319025 -22.592914,9.6531187 -0.84391691,-8.7998913 21.851515,-28.055906 56.784989,-24.677285 75.916949,-2.0895574 95.851114,21.445275 92.338429,57.646373 68.91195,77.457255 44.537741,98.069597 7.0689699,94.422842 -13.42081,70.15759 -34.711352,44.944026 -30.930522,6.2075379 -5.8264788,-14.961116 20.226421,-36.929881 60.230667,-33.01497 82.078174,-7.0721193 104.72518,19.820098 100.67619,61.092138 73.894511,83.61848 46.162992,106.94375 3.6231248,102.76066 -19.582035,75.140152 -43.585578,46.569346 -39.2684,2.7616203 -10.809041,-21.122341 c 29.41008,-24.681835 74.485691,-20.23056 99.04844,9.06766 C 113.59954,18.19466 109.01416,64.538183 78.877073,89.779705 47.788482,115.81816 0.17702472,111.09869 -25.743259,80.122714 -52.460047,48.194882 -47.606465,-0.68453098 -15.791603,-27.283566 16.975459,-54.678693 67.122849,-49.691003 94.400624,-17.037243 122.4741,16.56904 117.3523,67.984425 83.859635,95.94093 49.414139,124.69277 -3.2692577,119.43686 -31.904484,85.105276 -61.33469,49.820573 -55.944663,-4.1308509 -20.774164,-33.44479 c 36.1239,-30.108582 91.343368,-24.58444 121.336014,11.424985 17.82057,21.39553306 24.38328,50.696608 17.5656,77.674858" />
  </g>
</svg>
