<?xml version="1.0" encoding="UTF-8" standalone="no"?>
<!-- Created with Inkscape (http://www.inkscape.org/) -->

<svg
   width="70px"
   height="70px"
   viewBox="0 0 70 70"
   version="1.1"
   id="SVGRoot"
   sodipodi:docname="tree-1-2-1.svg"
   inkscape:version="1.1 (c68e22c387, 2021-05-23)"
   xmlns:inkscape="http://www.inkscape.org/namespaces/inkscape"
   xmlns:sodipodi="http://sodipodi.sourceforge.net/DTD/sodipodi-0.dtd"
   xmlns="http://www.w3.org/2000/svg"
   xmlns:svg="http://www.w3.org/2000/svg">
  <sodipodi:namedview
     id="namedview993"
     pagecolor="#505050"
     bordercolor="#eeeeee"
     borderopacity="1"
     inkscape:pageshadow="0"
     inkscape:pageopacity="0"
     inkscape:pagecheckerboard="0"
     inkscape:document-units="px"
     showgrid="false"
     inkscape:zoom="8.7988366"
     inkscape:cx="17.672791"
     inkscape:cy="35.800187"
     inkscape:window-width="1904"
     inkscape:window-height="1028"
     inkscape:window-x="0"
     inkscape:window-y="0"
     inkscape:window-maximized="0"
     inkscape:current-layer="layer1" />
  <defs
     id="defs988">
    <marker
       style="overflow:visible;"
       id="Arrow1Lend"
       refX="0.0"
       refY="0.0"
       orient="auto"
       inkscape:stockid="Arrow1Lend"
       inkscape:isstock="true">
      <path
         transform="scale(0.8) rotate(180) translate(12.5,0)"
         style="fill-rule:evenodd;fill:context-stroke;stroke:context-stroke;stroke-width:1.0pt;"
         d="M 0.0,0.0 L 5.0,-5.0 L -12.5,0.0 L 5.0,5.0 L 0.0,0.0 z "
         id="path8418" />
    </marker>
    <linearGradient
       id="linearGradient4147"
       inkscape:swatch="solid">
      <stop
         style="stop-color:#000000;stop-opacity:1;"
         offset="0"
         id="stop4145" />
    </linearGradient>
  </defs>
  <g
     inkscape:label="Layer 1"
     inkscape:groupmode="layer"
     id="layer1">
    <ellipse
       style="fill:#3d3635;fill-opacity:1;stroke-width:0.417419"
       id="path1151-8"
       cx="35.175106"
       cy="25.514738"
       rx="14.200174"
       ry="14.200172" />
    <path
       id="path1297-3"
       style="fill:#725c42;fill-opacity:0.5;stroke-width:0.492172"
       d="m 37.378796,37.660478 c 0,0 2.380176,-0.489044 2.706242,-0.684683 0.326066,-0.19564 0.260705,-1.532575 1.825821,-1.989068 0.782246,-0.228155 1.515306,-0.415583 2.053256,-0.546003 a 12.618753,12.276383 0 0 0 7.92e-4,0 12.618753,12.276383 0 0 0 3.456698,-8.404801 12.618753,12.276383 0 0 0 -4.098588,-9.052236 c -0.142607,0.200598 -0.27102,0.45206 -0.27102,0.634757 0,0.29346 -0.293691,-0.228167 0.06498,0.423966 0.358672,0.652132 0.619855,0.488792 0.130755,0.977891 -0.489099,0.4891 -0.880285,0.880402 -1.141139,1.108648 -0.260851,0.228246 -0.717831,0.261278 -0.978684,0.326492 -0.260853,0.06521 -1.23861,0.521437 -1.23861,0.521437 0.456492,-2.67374 1.434366,-2.119364 1.20612,-3.586661 -0.214085,-1.37626 -0.702713,-1.413402 -0.279737,-2.13805 A 12.618753,12.276383 0 0 0 34.802517,13.759971 12.618753,12.276383 0 0 0 22.376789,24.002478 c 2.157898,3.177015 0.276631,2.933099 2.187181,3.06047 1.560292,0.104019 -1.021032,0.987018 -2.141219,1.344007 a 12.618753,12.276383 0 0 0 8.3525,9.234504 c 3.160164,-0.446671 6.603545,0.01902 6.603545,0.01902 z" />
    <path
       sodipodi:type="spiral"
       style="fill:none;fill-rule:evenodd;stroke:#ae4712;stroke-width:2.73642;stroke-miterlimit:4;stroke-dasharray:none;stroke-opacity:0.302941"
       id="path9351-2"
       sodipodi:cx="32.788376"
       sodipodi:cy="32.788376"
       sodipodi:expansion="1"
       sodipodi:revolution="11.149896"
       sodipodi:radius="88.349548"
       sodipodi:argument="-19.529577"
       sodipodi:t0="0"
       transform="matrix(-0.13847914,0,0,-0.14207726,40.019335,29.860796)"
       d="m 32.788376,32.788376 c 0.926742,-0.749453 1.46747,0.879476 1.24564,1.540306 -0.601143,1.790809 -2.981291,1.837169 -4.326253,0.950975 -2.405821,-1.585194 -2.342515,-5.034126 -0.656309,-7.1122 2.474577,-3.049657 7.116024,-2.866202 9.898147,-0.361643 3.708131,3.338182 3.397903,9.208398 0.06698,12.684093 -4.19163,4.373808 -11.305803,3.933792 -15.470039,-0.227688 -5.043448,-5.040111 -4.472114,-13.406052 0.522354,-18.255986 5.885807,-5.715481 15.508071,-5.011964 21.041932,0.817019 6.389062,6.729791 5.552833,17.611276 -1.111685,23.82788 C 36.426492,53.714831 24.283829,52.745546 17.385314,45.244781 9.6462227,36.830056 10.748801,23.424829 19.086331,15.845008 28.342569,7.42997 43.011379,8.6660091 51.27205,17.84069 60.363455,27.938023 58.993831,43.871187 48.981702,52.812356 38.043596,62.580455 20.845481,61.077153 11.224089,50.227342 0.77903951,38.448713 2.4160919,19.985175 14.103769,9.683783 26.722722,-1.4384257 46.452064,0.33243445 57.433275,12.858128 69.232812,26.317244 67.328098,47.3127 53.964264,58.973581 39.665118,71.450587 17.403292,69.411982 5.0628644,55.209904 -8.0917275,40.070838 -5.919201,16.542426 9.1212069,3.5225582 25.1001,-10.309719 49.89528,-8.0032447 63.5945,7.8755664 78.104546,24.694209 75.664103,50.756311 58.946826,65.134806 41.288501,80.322694 13.959343,77.748264 -1.0983604,60.192466 -16.964153,41.694517 -14.255719,13.098188 4.138645,-2.6386665 23.476168,-19.182418 53.339769,-16.339968 69.755724,2.8930045 86.977483,23.070058 84.001005,54.201019 63.929388,71.296031 42.912842,89.195839 10.514443,86.085321 -7.2595851,65.175028 -25.83748,43.319025 -22.592914,9.6531187 -0.84391691,-8.7998913 21.851515,-28.055906 56.784989,-24.677285 75.916949,-2.0895574 95.851114,21.445275 92.338429,57.646373 68.91195,77.457255 44.537741,98.069597 7.0689699,94.422842 -13.42081,70.15759 -34.711352,44.944026 -30.930522,6.2075379 -5.8264788,-14.961116 20.226421,-36.929881 60.230667,-33.01497 82.078174,-7.0721193 104.72518,19.820098 100.67619,61.092138 73.894511,83.61848 46.162992,106.94375 3.6231248,102.76066 -19.582035,75.140152 -43.585578,46.569346 -39.2684,2.7616203 -10.809041,-21.122341 c 29.41008,-24.681835 74.485691,-20.23056 99.04844,9.06766 C 113.59954,18.19466 109.01416,64.538183 78.877073,89.779705 47.788482,115.81816 0.17702472,111.09869 -25.743259,80.122714 -52.460047,48.194882 -47.606465,-0.68453098 -15.791603,-27.283566 16.975459,-54.678693 67.122849,-49.691003 94.400624,-17.037243 122.4741,16.56904 117.3523,67.984425 83.859635,95.94093 49.414139,124.69277 -3.2692577,119.43686 -31.904484,85.105276 -61.33469,49.820573 -55.944663,-4.1308509 -20.774164,-33.44479 c 36.1239,-30.108582 91.343368,-24.58444 121.336014,11.424985 17.82057,21.39553306 24.38328,50.696608 17.5656,77.674858" />
    <ellipse
       style="fill:#3d3635;fill-opacity:1;stroke-width:0.211959"
       id="path1151-4"
       cx="50.120262"
       cy="-54.89362"
       rx="7.2106142"
       ry="7.2106133"
       transform="rotate(90)" />
    <path
       id="path1297-4"
       style="fill:#725c42;fill-opacity:0.5;stroke-width:0.249917"
       d="m 60.821639,48.960404 c 0,0 -0.248327,-1.208614 -0.34767,-1.374185 -0.09934,-0.165571 -0.778216,-0.132381 -1.010016,-0.927122 C 59.3481,46.261886 59.252927,45.88965 59.186702,45.616488 a 6.233745,6.4075948 0 0 0 0,-4.03e-4 6.233745,6.4075948 0 0 0 -4.267819,-1.755254 6.233745,6.4075948 0 0 0 -4.596577,2.081196 c 0.101861,0.07241 0.229549,0.137619 0.32232,0.137619 0.149014,0 -0.11586,0.149132 0.215282,-0.03299 0.331142,-0.182128 0.248201,-0.314752 0.496558,-0.0664 0.248356,0.248357 0.447053,0.446995 0.562952,0.579452 0.1159,0.132456 0.132673,0.364503 0.165788,0.496959 0.03311,0.132457 0.264777,0.628946 0.264777,0.628946 -1.357681,-0.231799 -1.076178,-0.728347 -1.821248,-0.612448 -0.698842,0.108709 -0.717702,0.356826 -1.085666,0.142046 a 6.233745,6.4075948 0 0 0 -0.757712,3.053386 6.233745,6.4075948 0 0 0 5.200976,6.30958 c 1.613236,-1.095744 1.48938,-0.140468 1.554056,-1.110614 0.05282,-0.79229 0.501192,0.518463 0.682465,1.087276 a 6.233745,6.4075948 0 0 0 4.689128,-4.241264 c -0.226812,-1.604678 0.0097,-3.353171 0.0097,-3.353171 z" />
    <path
       sodipodi:type="spiral"
       style="fill:none;fill-rule:evenodd;stroke:#ae4712;stroke-width:2.73642;stroke-miterlimit:4;stroke-dasharray:none;stroke-opacity:0.302941"
       id="path9351-3"
       sodipodi:cx="32.788376"
       sodipodi:cy="32.788376"
       sodipodi:expansion="1"
       sodipodi:revolution="11.149896"
       sodipodi:radius="88.349548"
       sodipodi:argument="-19.529577"
       sodipodi:t0="0"
       transform="matrix(0,0.07031742,-0.07214449,0,57.12217,47.649553)"
       d="m 32.788376,32.788376 c 0.926742,-0.749453 1.46747,0.879476 1.24564,1.540306 -0.601143,1.790809 -2.981291,1.837169 -4.326253,0.950975 -2.405821,-1.585194 -2.342515,-5.034126 -0.656309,-7.1122 2.474577,-3.049657 7.116024,-2.866202 9.898147,-0.361643 3.708131,3.338182 3.397903,9.208398 0.06698,12.684093 -4.19163,4.373808 -11.305803,3.933792 -15.470039,-0.227688 -5.043448,-5.040111 -4.472114,-13.406052 0.522354,-18.255986 5.885807,-5.715481 15.508071,-5.011964 21.041932,0.817019 6.389062,6.729791 5.552833,17.611276 -1.111685,23.82788 C 36.426492,53.714831 24.283829,52.745546 17.385314,45.244781 9.6462227,36.830056 10.748801,23.424829 19.086331,15.845008 28.342569,7.42997 43.011379,8.6660091 51.27205,17.84069 60.363455,27.938023 58.993831,43.871187 48.981702,52.812356 38.043596,62.580455 20.845481,61.077153 11.224089,50.227342 0.77903951,38.448713 2.4160919,19.985175 14.103769,9.683783 26.722722,-1.4384257 46.452064,0.33243445 57.433275,12.858128 69.232812,26.317244 67.328098,47.3127 53.964264,58.973581 39.665118,71.450587 17.403292,69.411982 5.0628644,55.209904 -8.0917275,40.070838 -5.919201,16.542426 9.1212069,3.5225582 25.1001,-10.309719 49.89528,-8.0032447 63.5945,7.8755664 78.104546,24.694209 75.664103,50.756311 58.946826,65.134806 41.288501,80.322694 13.959343,77.748264 -1.0983604,60.192466 -16.964153,41.694517 -14.255719,13.098188 4.138645,-2.6386665 23.476168,-19.182418 53.339769,-16.339968 69.755724,2.8930045 86.977483,23.070058 84.001005,54.201019 63.929388,71.296031 42.912842,89.195839 10.514443,86.085321 -7.2595851,65.175028 -25.83748,43.319025 -22.592914,9.6531187 -0.84391691,-8.7998913 21.851515,-28.055906 56.784989,-24.677285 75.916949,-2.0895574 95.851114,21.445275 92.338429,57.646373 68.91195,77.457255 44.537741,98.069597 7.0689699,94.422842 -13.42081,70.15759 -34.711352,44.944026 -30.930522,6.2075379 -5.8264788,-14.961116 20.226421,-36.929881 60.230667,-33.01497 82.078174,-7.0721193 104.72518,19.820098 100.67619,61.092138 73.894511,83.61848 46.162992,106.94375 3.6231248,102.76066 -19.582035,75.140152 -43.585578,46.569346 -39.2684,2.7616203 -10.809041,-21.122341 c 29.41008,-24.681835 74.485691,-20.23056 99.04844,9.06766 C 113.59954,18.19466 109.01416,64.538183 78.877073,89.779705 47.788482,115.81816 0.17702472,111.09869 -25.743259,80.122714 -52.460047,48.194882 -47.606465,-0.68453098 -15.791603,-27.283566 16.975459,-54.678693 67.122849,-49.691003 94.400624,-17.037243 122.4741,16.56904 117.3523,67.984425 83.859635,95.94093 49.414139,124.69277 -3.2692577,119.43686 -31.904484,85.105276 -61.33469,49.820573 -55.944663,-4.1308509 -20.774164,-33.44479 c 36.1239,-30.108582 91.343368,-24.58444 121.336014,11.424985 17.82057,21.39553306 24.38328,50.696608 17.5656,77.674858" />
  </g>
</svg>
