<svg version="1.1" viewBox="0 0 512 512" xmlns="http://www.w3.org/2000/svg">
	<g transform="matrix(1.3802248,0,0,1.3802248,-105.42479,5.247444)">
		<path d="m446.8364 291.66638-195.96335-6.99869 35.6445-20.01951 31.24997-144.69387-72.59108 119.62879-62.33718-133.62617 24.90232 173.66519 52.40881 24.25128-183.26805-16.27602 27.994764-15.95051 18.55467-182.77977-36.621058-16.276026 153.64569-18.71743 20.67055 89.029865 19.69399-79.264249 148.92564 8.626293-44.92184 15.624985 18.71743 179.03628z" fill="#22774a"/>
		<path d="m240.8418 53.322266-155.88672 18.990234 37.943362 16.865234-18.49219 182.16211-29.160156 16.61328 184.85938 16.41797 0.25586-0.95117-52.16406-24.13672-24.38477-170.05859 61.30664 131.41797 71.53125-117.88477-30.57422 141.56446-37 20.78125 197.74219 7.0625 0.26562-0.9336-43.07031-24.61328-18.65039-178.38672 44.54688-15.494141-0.13477-0.972656-149.33984-8.650391-19.29297 77.652346zm-0.77149 1.101562 20.57031 88.591792 0.97071 8e-3 19.5957-78.861331 145.99805 8.457032-42.91797 14.929687 18.78516 179.68554 41.75585 23.85938-192.1582-6.86133 34.28906-19.25781 31.29688-144.91406-0.91602-0.36524-72.10547 118.82813-61.9414-132.77735-0.94922 0.28125 24.94141 173.9336 50.04492 23.16015-178.81446-15.88104 26.832035-15.28711 18.61718-183.39648-35.298824-15.6875z"/>
	</g>
</svg>
